<?xml version="1.0" encoding="utf-8"?>
<!DOCTYPE svg PUBLIC "-//W3C//DTD SVG 1.1//EN" "http://www.w3.org/Graphics/SVG/1.1/DTD/svg11.dtd">
<svg xmlns="http://www.w3.org/2000/svg" xmlns:xlink="http://www.w3.org/1999/xlink" viewBox="0 0 18 18">
	<g>
		<path d="M17.34 8.33a3.78 3.78 0 0 0-3.29-3.64A4.77 4.77 0 0 0 9.13.12a4.91 4.91 0 0 0-4.68 3.19 4.53 4.53 0 0 0-4 4.35 4.59 4.59 0 0 0 4.75 4.41h8.1a.64.64 0 0 0 .2 0 3.84 3.84 0 0 0 3.84-3.74Z" fill="#FFFFFF"></path>
		<path d="M6.27 6.58 8.85 4a.31.31 0 0 1 .44 0l2.59 2.59a.14.14 0 0 1-.1.24h-1.59a.13.13 0 0 0-.14.13v3.24a.11.11 0 0 1-.11.11H8.2a.11.11 0 0 1-.11-.11V7A.13.13 0 0 0 8 6.82H6.36a.14.14 0 0 1-.09-.24Z" fill="#ff8307"></path>
		<path d="M13.86 11.49a.14.14 0 0 0-.09-.13l-4.7-1.59h-.13v8.35h.13l4.71-1.88a.13.13 0 0 0 .08-.13Z" fill="#FFFFFF"></path>
		<path d="m8.91 9.8-4.51.83a.14.14 0 0 0-.12.13V17a.14.14 0 0 0 .11.14l4.52 1a.14.14 0 0 0 .16-.14v-8a.14.14 0 0 0-.16-.2Z" fill="#FFFFFF"></path>
		<path fill="#ff8307" opacity=".75" d="M6.82 11.04v5.81l1.57.25v-6.33l-1.57.27zm-1.93.32v5.08l1.37.28v-5.59l-1.37.23z"></path>
	</g>
</svg>
