<svg viewBox="0 0 18 18" xmlns="http://www.w3.org/2000/svg">
	<g>
		<path fill="#fff" d="M17.2 4.512h-5.484v5.916a1.079 1.079 0 0 1-1.111 1.041H6.716v2.453a.647.647 0 0 0 .679.609h2.76c0-.059-.009-.118-.009-.178a2.15 2.15 0 1 1 4.3 0c0 .06 0 .119-.009.178H17.2a.647.647 0 0 0 .678-.609v-8.8a.647.647 0 0 0-.678-.61Z"></path>
		<path d="M11.707 6.032h4.356a.34.34 0 0 1 .34.34v1.239a.34.34 0 0 1-.34.339h-4.356Z" fill="#a2b817"></path>
		<path fill="#fff" d="M10.605 1.018H.8a.647.647 0 0 0-.678.609v8.8a.647.647 0 0 0 .678.609h2.8a2.149 2.149 0 0 1 2.1-2.612 2.147 2.147 0 0 1 2.1 2.613h2.8a.647.647 0 0 0 .679-.609v-8.8a.647.647 0 0 0-.674-.61Z"></path>
		<path d="M12.3 18H5.7a.42.42 0 0 1-.419-.419V11.5a.42.42 0 1 1 .839 0v5.659h5.752v-2.576a.42.42 0 1 1 .839 0v3A.42.42 0 0 1 12.3 18Z" fill="#fff"></path>
		<rect x="1.597" y="2.538" width="8.214" height="1.917" rx=".339" fill="#a2b817"></rect>
		<rect x="1.597" y="5.637" width="8.214" height="1.917" rx=".339" fill="#a2b817"></rect>
		<circle cx="5.704" cy="10.575" r="1.73" fill="#fff"></circle>
		<circle cx="12.296" cy="14.353" r="1.73" fill="#fff"></circle>
		<path d="M16.063 9.131h-4.347l-.007 1.428v.489h4.356a.34.34 0 0 0 .34-.339V9.47a.34.34 0 0 0-.342-.339Z" fill="#a2b817"></path>
		<path d="M11.692 10.509a.994.994 0 0 1-.191.533v.006h.21v-.832Z" fill="#a2b817"></path>
	</g>
</svg>