<svg xmlns="http://www.w3.org/2000/svg"  viewBox="0 0 22 22">
		<path style="fill:none; stroke:#fff" d="M 13.312 21.541 L 7.452 3.723"></path>
		<path style="fill:none;stroke:#fff" d="M 1.531 21.75 L 7.712 4.044"></path>
		<path d="M 15.963 9.988 C 19.283 9.953 21.975 12.668 21.913 15.988 C 21.947 19.288 19.263 21.971 15.963 21.938 L 10.013 21.938 L 10.013 15.938 C 9.979 12.638 12.663 9.954 15.963 9.988 Z" fill-rule="evenodd" fill="#fff"></path>
		<rect x="12.053" y="15.088" width="1.36" height="4.08" fill="#28a745"></rect>
		<rect x="14.773" y="16.448" width="1.36" height="2.72" fill="#28a745"></rect>
		<rect x="17.493" y="13.728" width="1.36" height="5.44" fill="#28a745"></rect>
		<ellipse style="fill:#fff; stroke:#fff" cx="7.53" cy="5.237" rx="1.43" ry="1.43"></ellipse>
		<path style="fill:none;stroke: #fff" d="M 3.057 18.429 C 2.422 18.429 9.243 18.387 10.954 18.387"></path>
		<path fill="#fff" d="M 4.024 1.744 L 3.314 1.044 C 2.224 2.124 1.544 3.634 1.544 5.294 C 1.544 6.954 2.224 8.464 3.314 9.544 L 4.024 8.834 C 3.114 7.934 2.544 6.684 2.544 5.294 C 2.544 3.904 3.114 2.654 4.024 1.744 Z M 11.774 1.044 L 11.064 1.754 C 11.974 2.654 12.544 3.904 12.544 5.294 C 12.544 6.684 11.974 7.934 11.064 8.844 L 11.774 9.554 C 12.864 8.464 13.544 6.954 13.544 5.294 C 13.544 3.634 12.864 2.124 11.774 1.044 Z"></path>
		<path fill="#fff" d="M 5.013 2.718 L 4.51 2.228 C 3.741 2.983 3.261 4.04 3.261 5.203 C 3.261 6.364 3.741 7.421 4.51 8.177 L 5.013 7.681 C 4.37 7.05 3.967 6.175 3.967 5.203 C 3.967 4.229 4.37 3.353 5.013 2.718 Z M 10.488 2.228 L 9.987 2.724 C 10.631 3.353 11.032 4.229 11.032 5.203 C 11.032 6.175 10.631 7.05 9.987 7.688 L 10.488 8.185 C 11.258 7.421 11.739 6.364 11.739 5.203 C 11.739 4.04 11.258 2.983 10.488 2.228 Z"></path>
</svg>