<?xml version="1.0" encoding="utf-8"?>
<!DOCTYPE svg PUBLIC "-//W3C//DTD SVG 1.1//EN" "http://www.w3.org/Graphics/SVG/1.1/DTD/svg11.dtd">
<svg xmlns="http://www.w3.org/2000/svg" xmlns:xlink="http://www.w3.org/1999/xlink" viewBox="0 0 18 18">
	<g>
		<path d="M13.5 4.62c-2.21 0-4-.57-4-1.28v6.79c0 .69 1.76 1.26 3.95 1.27h.05c2.21 0 4-.57 4-1.27V3.34c0 .71-1.79 1.28-4 1.28Z" fill="#FFFFFF"></path>
		<path d="M17.5 3.34c0 .71-1.79 1.28-4 1.28s-4-.57-4-1.28 1.79-1.27 4-1.27 4 .57 4 1.27" fill="#FFFFFF"></path>
		<path d="M16.57 3.24c0 .45-1.38.81-3.07.81s-3.07-.36-3.07-.81 1.38-.81 3.07-.81 3.07.36 3.07.81" fill="#dc3545"></path>
		<path d="M13.5 3.43a8.65 8.65 0 0 0-2.43.3 7.8 7.8 0 0 0 2.43.32 7.8 7.8 0 0 0 2.43-.32 8.65 8.65 0 0 0-2.43-.3Z" fill="#dc3545"></path>
		<path d="M4.5 4.62c-2.21 0-4-.57-4-1.28v6.79c0 .69 1.76 1.26 4 1.27 2.21 0 4-.57 4-1.27V3.34c0 .71-1.79 1.28-4 1.28Z" fill="#FFFFFF"></path>
		<path d="M8.5 3.34c0 .71-1.79 1.28-4 1.28s-4-.57-4-1.28 1.79-1.27 4-1.27 4 .57 4 1.27" fill="#FFFFFF"></path>
		<path d="M7.57 3.24c0 .45-1.38.81-3.07.81s-3.07-.36-3.07-.81 1.38-.81 3.07-.81 3.07.36 3.07.81" fill="#dc3545"></path>
		<path d="M4.5 3.43a8.65 8.65 0 0 0-2.43.3 7.8 7.8 0 0 0 2.43.32 7.8 7.8 0 0 0 2.43-.32 8.65 8.65 0 0 0-2.43-.3Z" fill="#dc3545"></path>
		<path d="M9 9.15c-2.21 0-4-.57-4-1.28v6.79c0 .7 1.76 1.26 3.95 1.27H9c2.21 0 4-.57 4-1.27V7.87c0 .71-1.79 1.28-4 1.28Z" fill="#FFFFFF"></path>
		<path d="M13 7.87c0 .71-1.79 1.28-4 1.28s-4-.57-4-1.28S6.79 6.6 9 6.6s4 .57 4 1.27" fill="#FFFFFF"></path>
		<path d="M12.07 7.77c0 .45-1.38.81-3.07.81s-3.07-.36-3.07-.81S7.31 7 9 7s3.07.36 3.07.81" fill="#dc3545"></path>
		<path d="M9 8a8.65 8.65 0 0 0-2.43.3A7.8 7.8 0 0 0 9 8.58a7.8 7.8 0 0 0 2.43-.32A8.65 8.65 0 0 0 9 8Z" fill="#dc3545"></path>
	</g>
</svg>
