<?xml version="1.0" encoding="utf-8"?>
<!-- Generator: Adobe Illustrator 17.0.1, SVG Export Plug-In . SVG Version: 6.00 Build 0)  -->
<!DOCTYPE svg PUBLIC "-//W3C//DTD SVG 1.1//EN" "http://www.w3.org/Graphics/SVG/1.1/DTD/svg11.dtd">
<svg xmlns="http://www.w3.org/2000/svg" viewBox="0 0 18 18" xmlns:xlink="http://www.w3.org/1999/xlink" xmlns:svg="http://www.w3.org/2000/svg">
	<g>
		<path d="M9 0 1.15 4.49v9L9 18l7.85-4.49v-9Zm6.4 12.57L9 16.27l-6.4-3.66V5.38L9 1.68l6.4 3.71Z" fill="#FFFFFF"></path>
		<path fill="#FFFFFF" d="M9 0 1.15 4.49l1.45.89L9 1.68l6.4 3.7 1.45-.89L9 0z"></path>
		<path d="M11.32 11.59a4.32 4.32 0 0 0-5.2-3.19l-.35-1.46a5.82 5.82 0 0 1 7 4.31Z" fill="#FFFFFF"></path>
		<path d="M12.74 10.47a.74.74 0 0 0-1-.27l-8.13 4.68 1.5.87 7.36-4.25a.76.76 0 0 0 .27-1.03Zm.17-8.23L5.53 6.5a.76.76 0 0 0-.27 1 .75.75 0 0 0 .65.37.69.69 0 0 0 .37-.1l8.14-4.7Z" fill="#FFFFFF"></path>
		<path d="M12.09 9a1.85 1.85 0 1 0 1.85 1.85A1.85 1.85 0 0 0 12.09 9ZM5.91 5.27a1.85 1.85 0 1 0 1.85 1.85 1.85 1.85 0 0 0-1.85-1.85Z" fill="#FFFFFF"></path>
	</g>
</svg>