<?xml version="1.0" encoding="utf-8"?>
<!DOCTYPE svg PUBLIC "-//W3C//DTD SVG 1.1//EN" "http://www.w3.org/Graphics/SVG/1.1/DTD/svg11.dtd">
<svg xmlns="http://www.w3.org/2000/svg" xmlns:xlink="http://www.w3.org/1999/xlink" viewBox="0 0 18 18">
	<g>
		<circle cx="9" cy="9" r="8.0" style="fill:none;stroke:#FFFFFF;stroke-width:2;stroke-miterlimit:10;"></circle>
		<path fill="#FFFFFF" d="M9.1 9.937 6.266 7.125a.507.507 0 0 0-.709 0L5.2 7.48a.469.469 0 0 0-.143.337.476.476 0 0 0 .141.339l2.132 2.122-2.178 2.163a.473.473 0 0 0 0 .676l.36.355a.507.507 0 0 0 .709 0l2.878-2.86a.475.475 0 0 0 .141-.338.468.468 0 0 0-.141-.337zm-.345-2.26a.475.475 0 0 0 .141.338l2.88 2.86a.507.507 0 0 0 .709 0l.36-.356a.469.469 0 0 0 .143-.337.475.475 0 0 0-.141-.338l-2.174-2.162 2.132-2.123a.475.475 0 0 0 .141-.338.469.469 0 0 0-.143-.337l-.36-.356a.507.507 0 0 0-.709 0L8.9 7.34a.472.472 0 0 0-.145.338z"></path>
	</g>
</svg>