<svg xmlns="http://www.w3.org/2000/svg" viewBox="0 0 1152 1152">
	<g>
		<path d="M1008.8 852.9l66.9-42.5v-451l-66.8 40.2-.1 453.3z" fill="#fff"></path>
		<path d="M913.9 340.7v454.2l94.9 58V399.5l-94.9-58.8z" fill="#fff"></path>
		<path d="M1008.8 399.5l66.8-40.2-96.3-60.3-65.5 41.6 95 58.9z" fill="#fff"></path>
		<path d="M143.2 399.5l-66.9-40.2v451.1l66.9 42.5V399.5z" fill="#fff"></path>
		<path d="M143.2 399.5v453.4l94.9-58V340.7l-94.9 58.8z" fill="#fff"></path>
		<path d="M238.1 340.7l-65.5-41.6-96.2 60.3 66.9 40.2 94.8-58.9z" fill="#fff"></path>
		<path d="M 593.226 529.547 C 527.626 529.547 468.277 537.656 413.177 524.556 C 369.077 514.056 306.115 512.713 266.745 506.254 C 191.336 493.882 190.5 380.1 189.5 378.8 C 188.3 377.3 188.6 375.1 190.1 373.9 C 191.6 372.7 193.8 373 195 374.5 C 195.2 374.8 220.3 406 279.7 436.7 C 314.6 454.8 354.4 469.2 397.9 479.5 C 452.4 492.4 512.9 499 577.8 499 C 642.9 499 703.3 492.4 757.5 479.4 C 800.8 469 840.2 454.6 874.5 436.4 C 932.8 405.6 956.6 374.8 956.9 374.4 C 958.1 372.9 960.3 372.6 961.8 373.7 C 963.3 374.9 963.6 377.1 962.5 378.6 C 961.5 379.9 1005.374 453.058 945.674 484.458 C 910.774 502.958 856.065 508.303 812.265 518.803 C 757.565 532.203 658.926 529.547 593.226 529.547 Z" fill="#fff"></path>
		<path d="M 577.8 534.1 C 495.9 534.1 377.3 529.7 276.8 508.6 C 216.4 495.9 191.6 483.4 190.6 482.8 C 188.9 481.9 188.2 479.8 189.1 478.1 C 190 476.4 192.1 475.7 193.8 476.6 C 194 476.7 219.2 489.4 278.8 501.9 C 378.6 522.8 496.4 527.2 577.8 527.2 C 659.2 527.2 776.6 522.8 874.8 501.9 C 933.5 489.4 957.8 476.8 958 476.6 C 959.7 475.6 961.8 476.2 962.8 477.9 C 963.8 479.6 963.2 481.7 961.5 482.7 C 961.4 482.7 961.4 482.8 961.3 482.8 C 960.3 483.3 936.3 495.9 876.9 508.6 C 778.1 529.7 659.7 534.1 577.8 534.1 Z" fill="#fff"></path>
		<path d="M 956.366 610.079 L 190.449 608.844 C 189.783 625.504 188.8 587.5 188.8 585.6 C 188.8 583.7 187.315 567.908 202.173 567.291 L 967.573 567.291 C 969.473 567.291 961.2 583.7 961.2 585.6 C 961.2 587.5 958.366 610.079 956.366 610.079 Z" fill="#fff"></path>
		<path d="M 959.7 803 C 958.6 803 957.6 802.5 956.9 801.6 C 956.7 801.3 932.6 770.1 874.1 739.4 C 839.7 721.3 800.4 706.9 757.2 696.6 C 703.1 683.7 642.8 677.1 577.9 677.1 C 513 677.1 452.4 683.7 398 696.6 C 354.5 706.9 314.7 721.3 279.8 739.4 C 220.4 770.2 195.4 801.3 195.2 801.6 C 194 803.1 191.8 803.4 190.3 802.2 C 188.8 801 231.075 684.649 232.275 683.149 C 233.275 681.849 320.495 665.558 374.925 656.271 C 414.253 649.561 458.13 649.704 502.23 648.459 C 558.843 646.861 556.826 647.17 622.426 647.17 C 688.026 647.17 720.026 642.146 774.726 655.246 C 818.526 665.746 871.384 661.935 906.284 680.335 C 965.984 711.835 971.472 715.786 972.472 717.086 C 973.672 718.586 963.5 801 961.9 802.2 C 961.2 802.7 960.5 803 959.7 803 Z" fill="#fff"></path>
		<path d="M 192.3 700 C 190.4 700 188.8 698.5 188.8 696.5 C 188.8 695.2 189.5 694 190.7 693.4 C 191.7 692.9 216.6 680.3 276.9 667.6 C 377.3 646.5 496 642.1 577.9 642.1 C 659.8 642.1 778.1 646.5 877 667.6 C 936.5 680.3 960.4 692.9 961.4 693.4 C 963.1 694.3 963.8 696.4 963 698.1 C 962.1 699.8 960 700.5 958.3 699.7 C 958.2 699.7 958.2 699.6 958.1 699.6 C 957.9 699.5 933.6 686.8 874.9 674.3 C 776.7 653.4 659.1 649 577.9 649 C 496.4 649 378.3 653.4 278.4 674.4 C 219 686.9 194.2 699.4 193.9 699.6 C 193.4 699.9 192.9 700.1 192.3 700 Z" fill="#fff"></path>
	</g>
</svg>