<?xml version="1.0" encoding="utf-8"?>
<svg xmlns="http://www.w3.org/2000/svg" xmlns:xlink="http://www.w3.org/1999/xlink" viewBox="0 0 18 18">
<g><title></title><defs></defs><path d="M11.718 7.39c0 3.475-4.279 6.274-5.209 6.841a.343.343 0 0 1-.355 0C5.22 13.664.938 10.865.938 7.39V3.207c0-.183.149-.332.332-.332 3.33-.088 2.564-1.522 5.058-1.522s1.728 1.435 5.058 1.523c.183 0 .332.149.332.332V7.39Z" fill="#FFFFFF"></path>
<path d="M17.565 9.887h-6.072c-.396.771-.972 1.543-1.729 2.312a16.568 16.568 0 0 1-3.035 2.395.766.766 0 0 1-.796 0c-.69-.419-3.477-2.223-4.763-4.707H.435a.435.435 0 0 0-.435.435v5.891c0 .24.195.435.435.435h17.13c.24 0 .435-.195.435-.435v-5.891a.435.435 0 0 0-.435-.435Z" fill="#FFFFFF"></path>
	<path d="M16.104 11.209h.78a.15.15 0 0 1 .15.15v.78a.15.15 0 0 1-.15.15h-.78a.15.15 0 0 1-.15-.15v-.782a.15.15 0 0 1 .15-.148Zm-2.16 0h.78a.15.15 0 0 1 .15.15v.78a.15.15 0 0 1-.15.15h-.78a.15.15 0 0 1-.15-.15v-.782a.15.15 0 0 1 .15-.148Zm-2.16 0h.78a.15.15 0 0 1 .15.15v.78a.15.15 0 0 1-.15.15h-.78a.15.15 0 0 1-.15-.15v-.782a.15.15 0 0 1 .15-.148Z" fill="#4528a7"></path>
<path d="M8.343 5.455a2.015 2.015 0 1 0-2.499 1.953v2.324a.08.08 0 0 1-.081.081h-.807a.08.08 0 0 0-.081.081v.807a.08.08 0 0 0 .081.081h.807a.08.08 0 0 1 .081.081v.614a.08.08 0 0 0 .081.081h.807a.08.08 0 0 0 .081-.081v-4.07a2.015 2.015 0 0 0 1.531-1.952ZM6.466 6.502a1.056 1.056 0 1 1-.275-2.095 1.056 1.056 0 0 1 .275 2.095Z" fill="#4528a7"></path>
</g>
</svg>
