<svg viewBox="0 0 35.5 35.5" xmlns="http://www.w3.org/2000/svg">
	<g>
		<ellipse style="fill: none; stroke: #fff;stroke-width:2.3" cx="17.879" cy="17.809" rx="16" ry="16"></ellipse>
		<path fill="#fff" d="M 27.304 13.574 L 19.094 13.574 L 22.514 2.134 C 22.584 1.804 22.454 1.484 22.194 1.354 C 22.134 1.294 22.004 1.294 21.934 1.294 C 21.744 1.294 21.544 1.414 21.424 1.544 L 8.174 20.874 C 8.044 21.064 8.044 21.324 8.104 21.524 C 8.234 21.714 8.424 21.844 8.684 21.844 L 16.634 21.844 L 13.084 33.474 C 13.014 33.804 13.144 34.124 13.404 34.254 C 13.474 34.314 13.604 34.314 13.664 34.314 C 13.854 34.314 14.054 34.184 14.184 34.054 L 27.814 14.544 C 27.884 14.414 27.944 14.284 27.944 14.154 C 27.944 13.824 27.624 13.574 27.304 13.574 Z"></path>
	</g>
</svg>