<svg version="1.1" id="Layer_1" xmlns="http://www.w3.org/2000/svg" xmlns:xlink="http://www.w3.org/1999/xlink" x="0px" y="0px"
	 width="200%" viewBox="0 0 1024 528" enable-background="new 0 0 1024 528" xml:space="preserve">
<path fill="#EC7211" opacity="1.000000" stroke="none" 
	d="
M264.758301,318.072876 
	C316.149292,348.311005 371.069061,367.874420 429.270325,378.416992 
	C465.631775,385.003510 502.356018,387.276276 539.206177,385.537933 
	C597.950806,382.766815 654.432495,369.585266 708.596924,346.601532 
	C709.974792,346.016876 711.339478,345.300934 712.784180,344.992554 
	C717.237122,344.042145 721.235535,344.817413 723.473694,349.222900 
	C725.576721,353.362183 723.632385,356.771332 720.494019,359.356964 
	C710.166809,367.865326 698.731384,374.741791 687.032471,381.134003 
	C649.065613,401.878693 608.312561,414.217316 565.757080,421.138763 
	C537.618408,425.715424 509.137970,426.008942 481.030640,423.846069 
	C395.639404,417.275299 321.058044,384.554077 257.597504,326.847504 
	C255.071655,324.550659 252.321350,321.862488 254.743790,318.306335 
	C257.445129,314.340759 261.090942,315.771790 264.758301,318.072876 
z"/>
<path fill="#FFFFFF" opacity="1.000000" stroke="none" 
	d="
M587.537964,242.432175 
	C585.225403,249.802292 583.103210,256.813263 580.827698,263.774109 
	C578.538391,270.777252 576.480225,272.240173 569.244629,272.311920 
	C565.245422,272.351562 561.245300,272.332703 557.245789,272.310211 
	C548.930359,272.263458 546.616943,270.562592 544.627136,262.571136 
	C541.289795,249.168152 538.064453,235.737198 534.815247,222.312393 
	C530.039490,202.580566 525.291931,182.841934 520.507263,163.112274 
	C520.082764,161.361801 519.473572,159.656143 518.521057,156.514450 
	C514.187805,174.422867 510.157043,190.972824 506.182434,207.536285 
	C501.756989,225.978500 497.441254,244.447266 492.958130,262.875366 
	C491.084869,270.575470 488.697968,272.266235 480.624451,272.317200 
	C476.958282,272.340332 473.291779,272.329651 469.625488,272.315216 
	C460.826630,272.280518 458.752014,270.683258 456.158173,262.122498 
	C450.124176,242.207947 444.081238,222.296082 438.018707,202.390198 
	C431.179962,179.935760 424.304688,157.492447 417.477142,135.034622 
	C416.654694,132.329269 415.881989,129.592178 415.348633,126.819328 
	C414.475342,122.279396 416.064911,120.119072 420.709747,119.931900 
	C426.199615,119.710670 431.716339,119.666618 437.201324,119.943542 
	C443.302582,120.251587 445.530701,122.632484 447.338715,129.707382 
	C453.637970,154.357025 459.941742,179.005524 466.255157,203.651535 
	C469.101379,214.762299 471.974457,225.866196 475.727814,237.096619 
	C476.742554,233.268112 477.843719,229.460114 478.758453,225.607864 
	C486.367767,193.562958 493.902985,161.500412 501.556213,129.466049 
	C503.428406,121.629578 505.723938,119.950165 513.723877,119.826927 
	C517.888977,119.762756 522.061096,119.700165 526.221069,119.865089 
	C532.502258,120.114105 534.914917,121.816467 536.430664,128.033539 
	C542.497192,152.915375 548.361877,177.846436 554.303223,202.758835 
	C556.964905,213.919739 559.630066,225.079834 562.298462,236.239151 
	C562.485962,237.023224 562.446533,237.941284 563.898560,238.510254 
	C566.522400,228.525848 569.161316,218.607758 571.733582,208.672394 
	C578.489746,182.576538 585.171570,156.461319 591.981201,130.379440 
	C594.273376,121.599792 596.735657,119.830322 605.681580,119.806068 
	C609.847534,119.794777 614.015503,119.770164 618.179077,119.881516 
	C621.844421,119.979538 623.533813,121.901321 623.418518,125.654358 
	C623.303284,129.405960 621.975403,132.832352 620.888550,136.305374 
	C609.854065,171.566849 598.747498,206.805786 587.537964,242.432175 
z"/>
<path fill="#FFFFFF" opacity="1.000000" stroke="none" 
	d="
M299.551788,271.655945 
	C284.312469,264.289459 276.995819,252.083435 275.589722,235.907608 
	C272.573578,201.210510 298.326111,183.596802 326.967590,181.870331 
	C339.181396,181.134094 351.219818,182.611221 363.156189,185.117950 
	C365.247284,185.557083 367.357422,185.905746 369.044678,186.219238 
	C370.926971,185.046600 370.666473,183.604553 370.642761,182.327316 
	C370.547150,177.176788 370.544556,172.045792 370.092560,166.879440 
	C368.374054,147.237625 357.777924,141.590454 340.148285,140.368912 
	C325.735199,139.370255 312.081940,142.894913 298.808472,148.176468 
	C287.054413,152.853439 285.639404,151.922928 285.650421,139.472595 
	C285.658783,130.023987 286.639435,128.532089 295.315613,124.892372 
	C316.750580,115.900223 338.878571,112.991493 361.748810,117.784607 
	C385.455963,122.753120 396.958466,138.272888 399.231018,161.588409 
	C401.302155,182.837296 399.990570,204.193375 399.955292,225.496628 
	C399.938843,235.441040 401.729431,244.589233 406.538696,253.277435 
	C409.622955,258.849274 408.842865,261.461639 403.676361,265.090576 
	C400.952026,267.004120 398.179443,268.858185 395.346405,270.605774 
	C389.839478,274.002777 386.583771,273.499695 382.232635,268.646210 
	C378.335052,264.298706 375.830505,259.024567 372.855530,253.497375 
	C351.988922,274.677124 328.091766,282.112640 299.551788,271.655945 
M337.606506,203.269745 
	C336.110046,203.292770 334.611115,203.268585 333.117462,203.345932 
	C312.755768,204.400558 302.312683,218.377472 307.261475,237.996933 
	C309.102692,245.296555 313.913391,249.727890 321.073364,251.616272 
	C348.389038,258.820587 372.313568,239.106918 370.725647,210.843719 
	C370.565887,207.999817 369.532745,206.724762 366.742035,206.194305 
	C357.426147,204.423508 348.103119,202.883133 337.606506,203.269745 
z"/>
<path fill="#FFFFFF" opacity="1.000000" stroke="none" 
	d="
M716.858521,188.926056 
	C728.225647,193.503952 738.297363,199.030594 743.915955,210.324936 
	C754.978699,232.562805 744.628784,259.515259 720.683533,270.275848 
	C704.654968,277.478790 687.868408,278.299744 670.747742,275.805084 
	C661.652405,274.479828 652.774902,272.244873 644.315918,268.633606 
	C635.431091,264.840485 631.304871,254.165527 635.039368,245.287994 
	C636.088074,242.794922 638.209534,242.295105 640.413513,242.815506 
	C643.145142,243.460510 645.801270,244.498383 648.417114,245.548325 
	C664.532715,252.016739 681.162048,254.241318 698.364929,251.616211 
	C711.022827,249.684677 718.541687,242.328308 718.800354,232.040573 
	C718.978943,224.934723 715.780701,219.946396 709.753479,216.558319 
	C701.837036,212.108292 693.077209,209.925735 684.518982,207.190857 
	C675.177368,204.205627 665.589722,201.869247 657.120239,196.586960 
	C643.273865,187.951187 635.995544,175.664032 636.359131,159.210739 
	C636.718811,142.932755 645.327881,131.571579 658.886902,123.880135 
	C676.524353,113.875160 695.488098,114.130028 714.726624,118.010010 
	C720.630005,119.200615 726.380188,120.853439 731.819946,123.440018 
	C738.864990,126.789894 742.785339,139.119720 738.918030,145.841080 
	C736.904663,149.340240 733.827942,148.417175 731.009705,147.141098 
	C724.444824,144.168579 717.626160,142.094803 710.543030,140.837128 
	C699.420288,138.862152 688.406555,138.676285 677.524902,142.376877 
	C670.023682,144.927902 665.952393,150.198196 665.481506,157.892990 
	C665.045166,165.021332 668.547668,170.331635 674.695190,173.859283 
	C684.632996,179.561966 695.841736,181.839493 706.510437,185.569931 
	C709.810486,186.723846 713.165527,187.720749 716.858521,188.926056 
z"/>
<path fill="#EC7211" opacity="1.000000" stroke="none" 
	d="
M738.425171,400.503784 
	C737.518738,401.277649 736.907349,401.851715 736.226562,402.326355 
	C734.359924,403.627899 732.289551,404.532104 730.216064,403.073792 
	C728.024048,401.532135 728.578552,399.247589 729.347534,397.166718 
	C731.366089,391.704559 733.443359,386.263550 735.549438,380.834381 
	C739.646973,370.271637 743.076904,359.514374 745.278748,348.381775 
	C745.900940,345.235992 745.829590,342.075989 745.608643,338.929749 
	C745.361389,335.408508 743.238586,333.179016 740.040405,331.919342 
	C736.291931,330.442993 732.360779,329.615723 728.372742,329.431824 
	C713.537537,328.747559 698.791870,329.981171 684.083435,331.808228 
	C682.434937,332.013000 680.778137,332.214630 679.120422,332.267151 
	C676.783569,332.341248 674.085266,332.579987 673.273804,329.709412 
	C672.528931,327.074188 674.519714,325.307922 676.413513,323.953369 
	C684.229370,318.363129 692.989319,314.825928 702.228821,312.360840 
	C721.048096,307.339844 740.022766,306.756256 759.040588,310.825195 
	C769.420410,313.045990 771.861267,315.840424 771.194275,326.301361 
	C769.375488,354.826263 759.850647,380.147003 738.425171,400.503784 
z"/>
</svg>